<svg width="800" height="500" viewBox="0 0 800 500" fill="none" xmlns="http://www.w3.org/2000/svg">
<path d="M543.629 50H130.723V450H543.629V50Z" fill="#DBDBDB"/>
<path d="M756.838 50H543.629V450H756.838V50Z" fill="#C7C7C7"/>
<path d="M372.217 148.86H363.484H356.893L353.159 141.226L347.886 148.86L340.746 133.152L333.991 148.86H314.658H305.871L302.685 138.37L299.664 148.86H293.897V50H372.217V148.86Z" fill="white"/>
<path d="M742.393 426.216C726.575 397.181 710.922 368.035 695.434 338.78L649.19 250.904L603.494 162.589C588.336 133.297 573.342 103.73 558.513 73.8887C574.33 102.924 589.983 132.07 605.471 161.325L651.716 249.201L697.412 337.516C712.387 366.955 727.381 396.521 742.393 426.216Z" fill="#DBDBDB"/>
<path d="M742.393 73.8354C727.491 103.494 712.497 133.06 697.412 162.535L651.716 250.85L605.471 338.726C589.983 368.018 574.33 397.164 558.513 426.163C573.378 396.505 588.372 366.938 603.494 337.463L649.025 249.203L695.27 161.327C710.721 132.071 726.429 102.908 742.393 73.8354Z" fill="#DBDBDB"/>
<path d="M273.299 213.997L201.241 215.48L164.662 216.139C152.415 216.139 140.112 216.139 127.864 216.414H125.448V213.997L125.118 152.539V149.738H127.864L200.582 150.067C224.857 150.067 249.078 150.671 273.299 150.946H274.837V152.429C274.837 162.809 274.342 173.19 274.123 183.46L273.299 213.997ZM273.299 213.997L272.53 182.911C272.53 172.695 271.926 162.59 271.816 152.539L273.299 154.022C249.078 154.297 224.857 154.901 200.582 154.901L127.864 155.285L130.61 152.539V213.997L128.139 211.526C140.112 211.526 152.085 211.526 164.113 211.8L200.252 212.459L273.299 213.997Z" fill="#EBEBEB"/>
<path d="M192.181 291.491L120.122 292.974L83.5442 293.633C71.2965 293.633 58.9938 293.633 46.7461 293.907H44.3295V291.491L44 230.142V227.341H46.7461L119.463 227.671C143.684 227.671 167.96 228.275 192.181 228.55H193.719V230.142C193.719 240.523 193.279 250.903 193.005 261.174L192.181 291.491ZM192.181 291.491L191.412 260.405C191.412 250.189 190.808 240.083 190.698 230.033L192.181 231.515C167.96 231.79 143.684 232.394 119.463 232.394L46.7461 232.724L49.4922 230.033L49.2176 291.491L46.7461 289.019C58.7192 289.019 70.6923 289.019 82.7203 289.019L118.859 289.678L192.181 291.491Z" fill="#EBEBEB"/>
</svg>
