<svg width="800" height="500" viewBox="0 0 800 500" fill="none" xmlns="http://www.w3.org/2000/svg">
<path d="M462.374 147.135H310.932V303.291H462.374V147.135Z" fill="#EBEBEB"/>
<path d="M540.573 147.135H462.374V303.291H540.573V147.135Z" fill="#DBDBDB"/>
<path d="M535.296 293.34C529.494 282.221 523.753 271.081 518.073 259.921L501.051 226.341L484.291 192.62C478.758 181.366 473.266 170.066 467.813 158.718C473.602 169.824 479.336 180.957 485.016 192.117L501.998 225.717L518.738 259.458C524.27 270.698 529.79 281.993 535.296 293.34Z" fill="#EBEBEB"/>
<path d="M535.295 158.697C529.843 170.018 524.344 181.319 518.798 192.6L501.957 226.341L484.935 259.921C479.255 271.094 473.52 282.234 467.732 293.34C473.171 282.006 478.664 270.705 484.21 259.438L501.051 225.696L517.972 192.096C523.652 180.936 529.427 169.803 535.295 158.697Z" fill="#EBEBEB"/>
<path d="M452.403 276.782H435.583V293.602H452.403V276.782Z" fill="white"/>
<path d="M452.422 50H300.979V147.134H452.422V50Z" fill="#DBDBDB"/>
<path d="M530.642 50H452.443V147.134H530.642V50Z" fill="#C7C7C7"/>
<path d="M389.553 86.2391H386.35H383.953L382.563 83.4592L380.649 86.2391L378.031 80.4981L375.553 86.2391H368.462H365.219L364.051 82.4117L362.943 86.2391H360.848V50H389.553V86.2391Z" fill="white"/>
<path d="M525.224 141.353C519.436 134.303 513.702 127.225 508.021 120.121L490.979 98.7685L474.32 77.2748C468.76 70.1035 463.261 62.9188 457.822 55.7207C463.624 62.7711 469.365 69.8484 475.045 76.9525L492.007 98.3052L508.746 119.738C514.36 126.95 519.852 134.155 525.224 141.353Z" fill="#DBDBDB"/>
<path d="M525.225 55.7817C519.853 62.9933 514.354 70.178 508.727 77.3358L491.987 98.7691L475.026 120.122C469.345 127.212 463.604 134.29 457.803 141.354C463.242 134.142 468.741 126.957 474.301 119.799L490.98 98.3662L507.961 77.0135C513.696 69.9228 519.45 62.8456 525.225 55.7817Z" fill="#DBDBDB"/>
<path d="M442.25 303.292H290.808V450H442.25V303.292Z" fill="#DBDBDB"/>
<path d="M520.449 303.292H442.25V450H520.449V303.292Z" fill="#C7C7C7"/>
<path d="M379.381 339.551H376.178H373.76L372.391 336.751L370.457 339.551L367.838 333.79L365.36 339.551H358.27H355.047L353.878 335.703L352.77 339.551H350.655V303.292H379.381V339.551Z" fill="white"/>
<path d="M515.151 441.277C509.35 430.628 503.609 419.938 497.928 409.208L480.967 376.977L464.207 344.586C458.647 333.842 453.148 322.998 447.709 312.053C453.51 322.703 459.252 333.392 464.932 344.123L481.893 376.353L498.653 408.745C504.146 419.542 509.645 430.386 515.151 441.277Z" fill="#DBDBDB"/>
<path d="M515.151 312.034C509.685 322.911 504.186 333.756 498.653 344.566L481.893 376.958L464.932 409.188C459.252 419.932 453.51 430.622 447.709 441.258C453.161 430.38 458.661 419.536 464.207 408.725L480.906 376.354L497.868 344.123C503.535 333.393 509.296 322.697 515.151 312.034Z" fill="#DBDBDB"/>
<path d="M343.101 363.441L316.672 363.985L303.256 364.227C298.764 364.227 294.251 364.227 289.759 364.327H288.873V363.441L288.752 340.9V339.873H289.759L316.43 339.993C325.334 339.993 334.217 340.215 343.101 340.316H343.665V340.86C343.665 344.667 343.483 348.474 343.403 352.241L343.101 363.441ZM343.101 363.441L342.819 352.04C342.819 348.293 342.597 344.586 342.557 340.9L343.101 341.444C334.217 341.545 325.334 341.766 316.43 341.766L289.759 341.907L290.766 340.9V363.441L289.86 362.535C294.251 362.535 298.643 362.535 303.054 362.635L316.309 362.877L343.101 363.441Z" fill="#EBEBEB"/>
<path d="M313.349 391.864L286.92 392.408L273.504 392.65C269.012 392.65 264.499 392.65 260.007 392.75H259.121V391.864L259 369.363V368.336H260.007L286.678 368.457C295.561 368.457 304.465 368.678 313.349 368.779H313.913V369.363C313.913 373.171 313.751 376.978 313.651 380.745L313.349 391.864ZM313.349 391.864L313.067 380.463C313.067 376.716 312.845 373.009 312.805 369.323L313.349 369.867C304.465 369.968 295.561 370.189 286.678 370.189L260.007 370.31L261.014 369.323L260.914 391.864L260.007 390.958C264.399 390.958 268.79 390.958 273.202 390.958L286.456 391.199L313.349 391.864Z" fill="#EBEBEB"/>
</svg>
