<svg width="800" height="500" viewBox="0 0 800 500" fill="none" xmlns="http://www.w3.org/2000/svg">
<path d="M559.539 284.78H484.359V368.04H559.539V284.78Z" fill="#EBEBEB"/>
<path d="M598.36 284.78H559.54V368.04H598.36V284.78Z" fill="#DBDBDB"/>
<path d="M595.69 362.3C592.816 356.38 589.966 350.44 587.14 344.48L578.72 326.58L570.41 308.58C567.65 302.58 564.92 296.553 562.22 290.5C565.086 296.42 567.933 302.36 570.76 308.32L579.19 326.23L587.5 344.23C590.26 350.23 592.99 356.253 595.69 362.3Z" fill="#EBEBEB"/>
<path d="M595.69 290.51C592.99 296.563 590.26 302.59 587.5 308.59L579.19 326.59L570.76 344.5C567.94 350.446 565.093 356.383 562.22 362.31C564.886 356.27 567.616 350.246 570.41 344.24L578.72 326.24L587.14 308.33C589.96 302.37 592.81 296.43 595.69 290.51Z" fill="#EBEBEB"/>
<path d="M559.539 159.04H484.359V236.56H559.539V159.04Z" fill="#EBEBEB"/>
<path d="M598.36 159.04H559.54V236.56H598.36V159.04Z" fill="#DBDBDB"/>
<path d="M528.33 177.03H526.74H525.55L524.86 175.64L523.9 177.03L522.61 174.18L521.38 177.03H517.86H516.25L515.67 175.13L515.12 177.03H514.08V159.04H528.33V177.03Z" fill="#DBDBDB"/>
<path d="M595.69 231.61C592.816 226.097 589.966 220.567 587.14 215.02L578.72 198.35L570.41 181.6C567.65 176.007 564.92 170.397 562.22 164.77C565.086 170.277 567.933 175.807 570.76 181.36L579.19 198L587.5 214.74C590.26 220.36 592.99 225.983 595.69 231.61Z" fill="#EBEBEB"/>
<path d="M595.69 164.77C592.99 170.397 590.26 176.007 587.5 181.6L579.19 198.35L570.76 215C567.94 220.547 565.093 226.077 562.22 231.59C564.886 225.97 567.616 220.36 570.41 214.76L578.72 198L587.14 181.32C589.96 175.773 592.81 170.257 595.69 164.77Z" fill="#EBEBEB"/>
<path d="M554.59 223.4H546.24V231.75H554.59V223.4Z" fill="white"/>
<path d="M281.8 217.68H206.62V295.2H281.8V217.68Z" fill="#EBEBEB"/>
<path d="M320.62 217.68H281.8V295.2H320.62V217.68Z" fill="#DBDBDB"/>
<path d="M318 290.26C315.12 284.74 312.27 279.21 309.45 273.67L301 257L292.68 240.26C289.933 234.673 287.207 229.063 284.5 223.43C287.373 228.943 290.22 234.47 293.04 240.01L301.47 256.69L309.78 273.44C312.527 279.02 315.267 284.626 318 290.26Z" fill="#EBEBEB"/>
<path d="M318 223.42C315.293 229.04 312.563 234.65 309.81 240.25L301.45 257L293 273.67C290.18 279.217 287.333 284.747 284.46 290.26C287.16 284.633 289.887 279.023 292.64 273.43L301 256.68L309.4 240C312.22 234.46 315.087 228.933 318 223.42Z" fill="#EBEBEB"/>
<path d="M276.85 282.04H268.5V290.39H276.85V282.04Z" fill="white"/>
<path d="M564.55 236.56H489.37V284.78H564.55V236.56Z" fill="#DBDBDB"/>
<path d="M603.37 236.56H564.55V284.78H603.37V236.56Z" fill="#C7C7C7"/>
<path d="M533.34 254.55H531.75H530.55L529.87 253.17L528.91 254.55L527.62 251.7L526.39 254.55H522.87H521.26L520.68 252.65L520.13 254.55H519.09V236.56H533.34V254.55Z" fill="white"/>
<path d="M600.699 281.91C597.819 278.41 594.969 274.896 592.149 271.37L583.729 260.77L575.419 250.13C572.659 246.57 569.929 243.003 567.229 239.43C570.103 242.93 572.949 246.443 575.769 249.97L584.199 260.57L592.509 271.21C595.269 274.77 597.999 278.336 600.699 281.91Z" fill="#DBDBDB"/>
<path d="M600.699 239.43C597.999 243.01 595.269 246.573 592.509 250.12L584.199 260.77L575.769 271.37C572.949 274.89 570.103 278.403 567.229 281.91C569.896 278.33 572.626 274.763 575.419 271.21L583.729 260.57L592.149 249.97C594.969 246.45 597.819 242.936 600.699 239.43Z" fill="#DBDBDB"/>
<path d="M276.86 169.46H201.68V217.68H276.86V169.46Z" fill="#DBDBDB"/>
<path d="M315.69 169.46H276.87V217.68H315.69V169.46Z" fill="#C7C7C7"/>
<path d="M245.649 187.45H244.059H242.869L242.179 186.07L241.229 187.45L239.929 184.6L238.699 187.45H235.179H233.569L232.989 185.55L232.439 187.45H231.399V169.46H245.649V187.45Z" fill="white"/>
<path d="M313 214.81C310.127 211.31 307.28 207.796 304.46 204.27L296 193.67L287.73 183C284.97 179.44 282.24 175.873 279.54 172.3C282.42 175.8 285.27 179.313 288.09 182.84L296.51 193.44L304.82 204.08C307.607 207.66 310.333 211.236 313 214.81Z" fill="#DBDBDB"/>
<path d="M313 172.33C310.334 175.91 307.604 179.476 304.81 183.03L296.5 193.67L288.08 204.27C285.26 207.79 282.41 211.303 279.53 214.81C282.23 211.23 284.96 207.663 287.72 204.11L296 193.47L304.43 182.87C307.277 179.35 310.134 175.836 313 172.33Z" fill="#DBDBDB"/>
<path d="M271.81 295.2H196.63V368.03H271.81V295.2Z" fill="#DBDBDB"/>
<path d="M310.63 295.2H271.81V368.03H310.63V295.2Z" fill="#C7C7C7"/>
<path d="M240.6 313.2H239.01H237.81L237.13 311.81L236.17 313.2L234.87 310.34L233.64 313.2H230.12H228.52L227.94 311.29L227.39 313.2H226.34V295.2H240.6V313.2Z" fill="white"/>
<path d="M308 363.7C305.12 358.413 302.27 353.106 299.45 347.78L291.03 331.78L282.71 315.7C279.95 310.366 277.22 304.983 274.52 299.55C277.4 304.836 280.25 310.143 283.07 315.47L291.49 331.47L299.81 347.55C302.536 352.91 305.266 358.293 308 363.7Z" fill="#DBDBDB"/>
<path d="M308 299.54C305.286 304.94 302.556 310.323 299.81 315.69L291.49 331.77L283.07 347.77C280.25 353.103 277.4 358.41 274.52 363.69C277.226 358.29 279.956 352.907 282.71 347.54L291 331.47L299.42 315.47C302.233 310.143 305.093 304.833 308 299.54Z" fill="#DBDBDB"/>
<path d="M222.589 325.06L209.469 325.33L202.809 325.45C200.579 325.45 198.339 325.45 196.109 325.5H195.669V325.06L195.609 313.87V313.36H196.109L209.349 313.42C213.769 313.42 218.179 313.53 222.589 313.58H222.869V313.85C222.869 315.74 222.779 317.63 222.739 319.5L222.589 325.06ZM222.589 325.06L222.449 319.4C222.449 317.54 222.339 315.7 222.319 313.87L222.589 314.14C218.179 314.19 213.769 314.3 209.349 314.3L196.109 314.37L196.609 313.87V325.06L196.159 324.61C198.339 324.61 200.519 324.61 202.709 324.66L209.289 324.78L222.589 325.06Z" fill="#EBEBEB"/>
<path d="M207.82 339.17L194.7 339.44L188.04 339.56C185.81 339.56 183.57 339.56 181.34 339.61H180.9V339.17L180.84 328V327.49H181.34L194.58 327.55C198.99 327.55 203.41 327.66 207.82 327.71H208.1V328C208.1 329.89 208.02 331.78 207.97 333.65L207.82 339.17ZM207.82 339.17L207.68 333.51C207.68 331.65 207.57 329.81 207.55 327.98L207.82 328.25C203.41 328.3 198.99 328.41 194.58 328.41L181.34 328.47L181.84 327.98L181.79 339.17L181.34 338.72C183.52 338.72 185.7 338.72 187.89 338.72L194.47 338.84L207.82 339.17Z" fill="#EBEBEB"/>
<path d="M488.6 136.6L475.47 136.88L468.81 136.99C466.59 136.99 464.35 136.99 462.12 137.05H461.68V136.6L461.63 125.41V124.91H462.13L475.37 124.97C479.78 124.97 484.2 125.09 488.61 125.14H488.89V125.41C488.89 127.31 488.81 129.2 488.76 131.06L488.6 136.6ZM488.6 136.6L488.46 130.95C488.46 129.08 488.35 127.24 488.33 125.41L488.6 125.68C484.19 125.68 479.77 125.84 475.36 125.85L462.12 125.91L462.62 125.41L462.56 136.6L462.12 136.15C464.3 136.15 466.48 136.15 468.66 136.21L475.24 136.32L488.6 136.6Z" fill="#EBEBEB"/>
<path d="M473.829 150.71L460.699 151L454.039 151.11C451.819 151.16 449.579 151.11 447.349 151.17H446.899V150.72V139.53V139H447.399L460.639 139.06C465.049 139.06 469.459 139.18 473.879 139.23H474.149V139.5C474.149 141.4 474.059 143.29 474.019 145.15L473.829 150.71ZM473.829 150.71L473.689 145.06C473.639 143.19 473.569 141.35 473.549 139.52L473.829 139.79C469.409 139.84 464.999 139.95 460.589 139.96L447.349 140.02L447.849 139.52L447.789 150.71L447.349 150.26C449.529 150.26 451.709 150.26 453.889 150.32L460.469 150.43L473.829 150.71Z" fill="#EBEBEB"/>
<path d="M459.11 136.6L445.99 136.88L439.33 136.99C437.1 136.99 434.87 136.99 432.63 137.05H432.19V136.6L432.13 125.41V124.91H432.63L445.87 124.97C450.29 124.97 454.7 125.09 459.11 125.14H459.39V125.41C459.39 127.31 459.3 129.2 459.26 131.06L459.11 136.6ZM459.11 136.6L459 131C459 129.13 458.89 127.29 458.87 125.46L459.14 125.73C454.73 125.73 450.32 125.89 445.9 125.9L432.66 125.96L433.16 125.46L433.11 136.65L432.66 136.2C434.85 136.2 437.02 136.2 439.21 136.26L445.79 136.37L459.11 136.6Z" fill="#EBEBEB"/>
<path d="M618.66 339.17L605.53 339.44L598.87 339.56C596.65 339.56 594.41 339.56 592.18 339.61H591.73V339.17L591.68 328V327.49H592.18L605.42 327.55C609.83 327.55 614.25 327.66 618.66 327.71H618.93V328C618.93 329.89 618.85 331.78 618.8 333.65L618.66 339.17ZM618.66 339.17L618.52 333.51C618.52 331.65 618.4 329.81 618.39 327.98L618.66 328.25C614.25 328.3 609.83 328.41 605.42 328.41L592.18 328.47L592.68 327.98L592.62 339.17L592.18 338.72C594.36 338.72 596.54 338.72 598.72 338.72L605.3 338.84L618.66 339.17Z" fill="#EBEBEB"/>
<path d="M603.89 65.4898L590.76 65.7598L584.1 65.8798C581.88 65.8798 579.64 65.8798 577.41 65.9298H577V65.4798V54.2898V53.7798H577.51L590.75 53.8398C595.16 53.8398 599.57 53.9498 603.99 53.9998H604.26V54.2698C604.26 56.1698 604.17 58.0498 604.13 59.9198L603.89 65.4898ZM603.89 65.4898L603.75 59.8298C603.7 57.9698 603.63 56.1298 603.61 54.2998L603.89 54.5698C599.47 54.5698 595.06 54.7298 590.65 54.7298L577.41 54.7998L577.91 54.2998L577.85 65.4898L577.41 65.0398C579.59 65.0398 581.76 65.0398 583.95 65.0998L590.53 65.2098L603.89 65.4898Z" fill="#EBEBEB"/>
<path d="M618.66 79.5999L605.53 79.8699L598.87 79.9899C596.65 79.9899 594.41 79.9899 592.18 80.0399H591.73V79.5999L591.68 68.4099V67.8999H592.18L605.42 67.9599C609.83 67.9599 614.25 68.0699 618.66 68.1199H618.93V68.3899C618.93 70.2799 618.85 72.1699 618.8 74.0399L618.66 79.5999ZM618.66 79.5999L618.52 73.9399C618.52 72.0799 618.4 70.2399 618.39 68.4099L618.66 68.6799C614.25 68.6799 609.83 68.8399 605.42 68.8399L592.18 68.9099L592.68 68.4099L592.62 79.5999L592.18 79.1499C594.36 79.1499 596.54 79.1499 598.72 79.2099L605.3 79.3199L618.66 79.5999Z" fill="#EBEBEB"/>
<path d="M222.589 65.49L209.469 65.76L202.809 65.88C200.579 65.88 198.339 65.88 196.109 65.93H195.669V65.48L195.609 54.3V53.79H196.109L209.349 53.85C213.769 53.85 218.179 53.96 222.589 54.01H222.869V54.28C222.869 56.18 222.779 58.06 222.739 59.93L222.589 65.49ZM222.589 65.49L222.449 59.83C222.449 57.97 222.339 56.13 222.319 54.3L222.589 54.57C218.179 54.57 213.769 54.73 209.349 54.73L196.109 54.8L196.609 54.3V65.49L196.109 65C198.289 65 200.469 65 202.659 65.06L209.239 65.17L222.589 65.49Z" fill="#EBEBEB"/>
<path d="M190.29 368.18L242.72 367.93L295.14 367.84L400 367.68L504.86 367.84L557.28 367.93L609.71 368.18L557.28 368.42L504.86 368.51L400 368.67L295.14 368.51L242.72 368.42L190.29 368.18Z" fill="#263238"/>
<path d="M405.96 459.35C525.071 459.35 621.63 448.336 621.63 434.75C621.63 421.164 525.071 410.15 405.96 410.15C286.849 410.15 190.29 421.164 190.29 434.75C190.29 448.336 286.849 459.35 405.96 459.35Z" fill="#EBEBEB"/>
<path d="M319.88 56.3101H290.84V368.04H319.88V56.3101Z" fill="#263238"/>
<path d="M509.16 56.3101H480.12V368.04H509.16V56.3101Z" fill="#455A64"/>
<path d="M480.12 86.8799H302.76V97.3499H480.12V86.8799Z" fill="#37474F"/>
<path d="M480.12 154.55H302.76V165.02H480.12V154.55Z" fill="#37474F"/>
<path d="M480.12 222.22H302.76V232.69H480.12V222.22Z" fill="#37474F"/>
<path d="M480.12 289.89H302.76V300.36H480.12V289.89Z" fill="#37474F"/>
<path d="M480.12 357.56H302.76V368.03H480.12V357.56Z" fill="#37474F"/>
<path d="M378.25 97.8701H323.29V154.54H378.25V97.8701Z" fill="#EBEBEB"/>
<path d="M406.64 97.8701H378.26V154.55H406.64V97.8701Z" fill="#DBDBDB"/>
<path d="M355.44 111.03H354.28H353.4L352.9 110.02L352.2 111.03L351.25 108.94L350.35 111.03H347.78H346.61L346.18 109.64L345.78 111.03H345.02V97.8701H355.44V111.03Z" fill="#DBDBDB"/>
<path d="M404.68 150.93C402.58 146.93 400.497 142.886 398.43 138.8L392.28 126.61L386.2 114.37C384.2 110.276 382.2 106.176 380.2 102.07C382.3 106.07 384.384 110.113 386.45 114.2L392.61 126.39L398.69 138.63C400.71 142.716 402.707 146.816 404.68 150.93Z" fill="#EBEBEB"/>
<path d="M404.679 102.07C402.679 106.183 400.679 110.283 398.679 114.37L392.599 126.61L386.439 138.81C384.379 142.863 382.296 146.903 380.189 150.93C382.189 146.816 384.189 142.716 386.189 138.63L392.269 126.39L398.419 114.2C400.499 110.14 402.586 106.096 404.679 102.07Z" fill="#EBEBEB"/>
<path d="M374.63 144.93H368.53V151.03H374.63V144.93Z" fill="white"/>
<path d="M412.87 186.97H357.91V222.22H412.87V186.97Z" fill="#DBDBDB"/>
<path d="M441.25 186.97H412.87V222.22H441.25V186.97Z" fill="#C7C7C7"/>
<path d="M390.05 200.12H388.89H388.01L387.51 199.11L386.81 200.12L385.87 198.04L384.97 200.12H382.39H381.22L380.79 198.73L380.4 200.12H379.63V186.97H390.05V200.12Z" fill="white"/>
<path d="M439.3 220.12C437.186 217.56 435.103 214.994 433.05 212.42L426.89 204.67L420.81 196.89C418.81 194.29 416.81 191.684 414.81 189.07C416.923 191.63 419.006 194.197 421.06 196.77L427.22 204.52L433.3 212.3C435.326 214.9 437.326 217.507 439.3 220.12Z" fill="#DBDBDB"/>
<path d="M439.3 189.07C437.3 191.684 435.3 194.29 433.3 196.89L427.22 204.67L421.06 212.42C419 214.994 416.916 217.56 414.81 220.12C416.81 217.507 418.81 214.9 420.81 212.3L426.89 204.52L433.05 196.78C435.11 194.2 437.193 191.63 439.3 189.07Z" fill="#DBDBDB"/>
<path d="M382.89 352.62H288.32V430.75H382.89V352.62Z" fill="#4338CA"/>
<path d="M420.35 352.62H382.88V430.76H420.35V352.62Z" fill="#4338CA"/>
<path opacity="0.1" d="M420.35 352.62H382.88V430.76H420.35V352.62Z" fill="black"/>
<path d="M417.77 425.38C415.004 419.82 412.254 414.243 409.52 408.65L401.39 391.85L393.39 374.97C390.724 369.33 388.09 363.663 385.49 357.97C388.264 363.53 391.014 369.106 393.74 374.7L401.86 391.5L409.86 408.38C412.527 414.04 415.164 419.706 417.77 425.38Z" fill="#4338CA"/>
<path d="M417.77 358C415.163 363.68 412.53 369.347 409.87 375L401.87 391.88L393.75 408.68C391.023 414.28 388.273 419.857 385.5 425.41C388.1 419.73 390.733 414.063 393.4 408.41L401.4 391.53L409.53 374.73C412.257 369.13 415.003 363.553 417.77 358Z" fill="#4338CA"/>
<path d="M342.29 369.51H340.8H339.67L339.03 368.2L338.13 369.51L336.92 366.83L335.76 369.51H332.46H330.95L330.41 367.72L329.89 369.51H328.91V352.62H342.29V369.51Z" fill="white"/>
<path d="M475.25 352.62H404.7V430.75H475.25V352.62Z" fill="#4338CA"/>
<path d="M511.68 352.62H475.25V430.75H511.68V352.62Z" fill="#4338CA"/>
<path opacity="0.1" d="M511.68 352.62H475.25V430.75H511.68V352.62Z" fill="black"/>
<g opacity="0.1">
<path opacity="0.1" d="M470.08 425.37C464.9 419.816 459.767 414.243 454.68 408.65L439.5 391.85L424.5 374.97C419.52 369.33 414.6 363.663 409.74 357.97C414.92 363.53 420.054 369.103 425.14 374.69L440.32 391.5L455.32 408.38C460.294 414.033 465.214 419.696 470.08 425.37Z" fill="black"/>
<path opacity="0.1" d="M470.08 358C465.207 363.68 460.287 369.346 455.32 375L440.32 391.88L425.14 408.68C420.06 414.273 414.927 419.846 409.74 425.4C414.614 419.733 419.534 414.066 424.5 408.4L439.5 391.52L454.68 374.71C459.76 369.13 464.894 363.56 470.08 358Z" fill="black"/>
</g>
<path d="M506.55 417.53H500.17V426.54H506.55V417.53Z" fill="white"/>
<path d="M384.63 302.09H304.08V352.61H384.63V302.09Z" fill="#4338CA"/>
<path opacity="0.1" d="M384.63 302.09H304.08V352.61H384.63V302.09Z" fill="black"/>
<path d="M421.071 302.1H384.641V352.63H421.071V302.1Z" fill="#4338CA"/>
<path opacity="0.2" d="M421.071 302.1H384.641V352.63H421.071V302.1Z" fill="black"/>
<path d="M418.56 349.64C415.86 346.173 413.193 342.687 410.56 339.18L402.65 328.66L394.85 318.1C392.257 314.567 389.697 311.027 387.17 307.48C389.837 310.96 392.503 314.447 395.17 317.94L403.07 328.46L410.87 339.03C413.463 342.55 416.027 346.087 418.56 349.64Z" fill="#4338CA"/>
<path d="M418.56 307.48C416.02 311.027 413.457 314.567 410.87 318.1L403.07 328.66L395.17 339.18C392.503 342.68 389.837 346.167 387.17 349.64C389.697 346.087 392.257 342.55 394.85 339.03L402.65 328.46L410.56 317.94C413.187 314.44 415.853 310.953 418.56 307.48Z" fill="#4338CA"/>
</svg>
